<svg xmlns="http://www.w3.org/2000/svg" xmlns:xlink="http://www.w3.org/1999/xlink" width="21.587" height="27.446" viewBox="0 0 21.587 27.446">
  <defs>
    <clipPath id="clip-path">
      <rect id="Rectangle_5489" data-name="Rectangle 5489" width="21.587" height="27.446" transform="translate(-2 -2)" fill="none"/>
    </clipPath>
  </defs>
  <g id="Group_12460" data-name="Group 12460" transform="translate(2 2)">
    <g id="Group_12459" data-name="Group 12459" clip-path="url(#clip-path)">
      <path id="Path_18073" data-name="Path 18073" d="M1.235,23.446c-.162-.109-.357-.146-.525-.254A1.434,1.434,0,0,1,0,21.929Q-.006,11.663,0,1.4A1.678,1.678,0,0,1,.92.138,2.327,2.327,0,0,1,1.754,0Q5.84,0,9.926,0A1.4,1.4,0,0,1,11.008.44c1.668,1.7,3.36,3.372,5.042,5.058.424.425.84.858,1.255,1.294a.972.972,0,0,1,.283.7q-.01,7.1,0,14.192A1.627,1.627,0,0,1,16.344,23.4c-.017,0-.029.028-.043.043ZM16.072,8.071c-1.655,0-3.311-.011-4.966,0a1.4,1.4,0,0,1-.86-.242,1.58,1.58,0,0,1-.727-1.353c.015-1.557.005-3.113.005-4.67,0-.317,0-.317-.317-.331-.03,0-.061,0-.091,0-2.457,0-4.914,0-7.371-.006-.242,0-.284.073-.284.3q.009,9.959,0,19.916c0,.3,0,.3.294.3H15.792c.284,0,.324-.039.324-.326q0-6.593,0-13.185c0-.122-.1-.241-.011-.364.006-.031,0-.044-.037-.035M10.987,2.6c.015-.012,0-.007,0,0,0,1.273,0,2.547,0,3.82,0,.148.066.178.195.177.557,0,1.114,0,1.67,0h2.127L10.987,2.6" fill="#dea20a"/>
      <path id="Path_18074" data-name="Path 18074" d="M16.108,8.106c-.087.123.012.242.012.364q-.008,6.592-.005,13.185c0,.287-.04.326-.323.326H1.76c-.294,0-.294,0-.294-.3q0-9.958,0-19.916c0-.223.042-.3.284-.3,2.457.01,4.914.006,7.37.006.031,0,.061,0,.092,0,.316.014.316.014.316.331,0,1.557.01,3.113-.005,4.67a1.579,1.579,0,0,0,.727,1.353,1.39,1.39,0,0,0,.861.242c1.655-.008,3.311,0,4.967,0l.035.035m-8.05,6.165-.049.032a9.918,9.918,0,0,1-.777-.785.816.816,0,0,0-.7-.294.633.633,0,0,0-.643.439.7.7,0,0,0,.131.759c.752.759,1.51,1.511,2.264,2.268a.787.787,0,0,0,.965,0c.753-.758,1.516-1.505,2.264-2.269a.719.719,0,0,0-.207-1.142.758.758,0,0,0-.916.159c-.268.293-.558.566-.868.879,0-1.469,0-2.88,0-4.291,0-.482-.217-.872-.811-.828a.614.614,0,0,0-.654.654v4.418m.713,5.512c1.227,0,2.455,0,3.682,0a.733.733,0,1,0-.071-1.463q-3.638,0-7.274,0a.736.736,0,0,0-.718.77.725.725,0,0,0,.72.7H8.771" fill="#f4f4f4"/>
      <path id="Path_18075" data-name="Path 18075" d="M10.987,2.6l3.992,3.992H12.852c-.556,0-1.113,0-1.67,0-.129,0-.2-.029-.195-.177,0-1.273,0-2.547,0-3.82,0,0,.01-.009,0,0" fill="#fff"/>
      <path id="Path_18076" data-name="Path 18076" d="M16.108,8.106l-.036-.035c.031-.009.042.005.036.035" fill="#e6e4e3"/>
      <path id="Path_18077" data-name="Path 18077" d="M8.059,14.27V9.853A.614.614,0,0,1,8.712,9.2c.594-.044.809.347.811.828,0,1.411,0,2.822,0,4.291.31-.313.6-.585.868-.879a.758.758,0,0,1,.916-.158.718.718,0,0,1,.207,1.142c-.748.763-1.511,1.511-2.264,2.269a.788.788,0,0,1-.965,0c-.754-.758-1.512-1.51-2.264-2.269a.7.7,0,0,1-.131-.759.633.633,0,0,1,.643-.439.819.819,0,0,1,.7.294,9.93,9.93,0,0,0,.777.786c.015-.011.033-.022.05-.033" fill="#030504"/>
      <path id="Path_18078" data-name="Path 18078" d="M8.771,19.782q-1.831,0-3.661,0a.725.725,0,0,1-.72-.7.736.736,0,0,1,.718-.77q3.636,0,7.274,0a.733.733,0,1,1,.071,1.463c-1.227,0-2.455,0-3.682,0" fill="#030504"/>
    </g>
  </g>
</svg>
