<svg xmlns="http://www.w3.org/2000/svg" xmlns:xlink="http://www.w3.org/1999/xlink" width="24.128" height="24.172" viewBox="0 0 24.128 24.172">
  <defs>
    <clipPath id="clip-path">
      <rect id="Rectangle_5492" data-name="Rectangle 5492" width="24.128" height="24.172" transform="translate(-2 -2)" fill="none"/>
    </clipPath>
  </defs>
  <g id="Group_12472" data-name="Group 12472" transform="translate(2 2)">
    <g id="Group_12463" data-name="Group 12463" clip-path="url(#clip-path)">
      <path id="Path_18081" data-name="Path 18081" d="M9.1,0c.282.013.563.031.846.058a9.139,9.139,0,0,1,2.2.464,9.025,9.025,0,0,1,2.73,1.52,9.457,9.457,0,0,1,1.885,2.064A9.144,9.144,0,0,1,17.96,6.731c.085.3.13.607.188.911a7.85,7.85,0,0,1,.123,1.994,9.616,9.616,0,0,1-.513,2.544A9.073,9.073,0,0,1,16.3,14.829c-.106.134-.006.188.038.23,1.154,1.085,2.243,2.236,3.37,3.348a1.891,1.891,0,0,1,.272.3.968.968,0,0,1-.064,1.13.89.89,0,0,1-1.169.192,1.7,1.7,0,0,1-.3-.274c-1.122-1.12-2.247-2.237-3.359-3.368a.226.226,0,0,0-.367-.018,7.64,7.64,0,0,1-1.509.961,9.556,9.556,0,0,1-2.43.821,9.084,9.084,0,0,1-2.451.116,8.643,8.643,0,0,1-3.375-.979,9.962,9.962,0,0,1-1.948-1.349A8.961,8.961,0,0,1,1.34,13.949,8.406,8.406,0,0,1,.319,11.6a9.783,9.783,0,0,1-.29-1.461C-.014,9.73,0,9.313,0,8.9A8.3,8.3,0,0,1,.493,6.157a9.137,9.137,0,0,1,1.5-2.726,8.979,8.979,0,0,1,2.736-2.3A8.437,8.437,0,0,1,7.221.2,8.432,8.432,0,0,1,9.1,0m.239,16.488a7.068,7.068,0,0,0,5.6-2.846,7.063,7.063,0,0,0,1.271-6.356,7.019,7.019,0,0,0-2.4-3.733,7.086,7.086,0,0,0-5.3-1.636,7,7,0,0,0-4.885,2.5A7.075,7.075,0,0,0,1.87,9.593,7.106,7.106,0,0,0,4.7,14.961a7.237,7.237,0,0,0,4.643,1.53" fill="#dea20a"/>
    </g>
  </g>
</svg>
